<svg width="370" height="370" viewBox="0 0 370 370" fill="none" xmlns="http://www.w3.org/2000/svg">
<path d="M370 185C370 287.174 287.174 370 185 370C82.826 370 0 287.174 0 185C0 82.826 82.826 0 185 0C287.174 0 370 82.826 370 185Z" fill="#3A57A1"/>
<path d="M222.838 199.659L213.517 170.821L213.438 170.586C210.177 161.237 201.404 154.959 191.608 154.959L122.809 154.965C113.014 154.965 104.24 161.24 100.98 170.584L91.5572 199.744C81.2141 204.379 73.9706 214.889 73.9706 227.089V275.846C73.9706 286.943 83.001 295.973 94.0977 295.973C103.871 295.973 112.034 288.969 113.847 279.722H200.65C202.462 288.969 210.626 295.973 220.399 295.973C230.931 295.973 240.526 287.485 240.526 278.166V226.626C240.523 214.575 233.234 204.198 222.838 199.659ZM122.809 176.644L191.608 176.636C192.148 176.636 192.709 177.073 192.944 177.663L199.264 197.212H115.156L121.474 177.663C121.705 177.079 122.267 176.644 122.809 176.644ZM218.843 250.307C218.843 254.57 215.374 258.039 211.112 258.039H103.385C99.1196 258.039 95.6503 254.57 95.6503 250.307V227.089C95.6503 222.722 99.2636 218.891 103.385 218.891H211.112C215.374 218.891 218.843 222.361 218.843 226.626V250.307Z" fill="white"/>
<path d="M136.353 227.394H178.606V249.074H136.353V227.394Z" fill="white"/>
<path d="M208.788 238.234C208.788 243.363 204.63 247.521 199.501 247.521C194.372 247.521 190.217 243.363 190.217 238.234C190.217 233.105 194.372 228.947 199.501 228.947C204.63 228.947 208.788 233.105 208.788 238.234Z" fill="white"/>
<path d="M124.743 238.234C124.743 243.363 120.588 247.521 115.458 247.521C110.329 247.521 106.171 243.363 106.171 238.234C106.171 233.105 110.329 228.947 115.458 228.947C120.588 228.947 124.743 233.105 124.743 238.234Z" fill="white"/>
<path d="M313.266 178.335V165.796C313.266 154.118 306.039 144.102 295.826 139.967L286.265 112.119C283.222 103.399 275.038 97.5388 265.904 97.5388H197.102C187.964 97.5388 179.783 103.399 176.74 112.119L167.893 138.4H187.526L194.284 118.219C194.722 116.977 195.879 116.113 197.102 116.113H265.901C267.129 116.113 268.289 116.986 268.712 118.194L275.49 137.934H191.606C205.455 137.934 218.112 145.124 225.393 156.509H285.404C290.525 156.509 294.691 160.675 294.691 165.796V178.332H293.136V194.609C291.47 197.11 288.628 198.764 285.404 198.764H248.232C252.297 204.167 255.211 210.479 256.611 217.339H274.702C275.857 227.346 284.379 235.143 294.691 235.143C305.223 235.143 314.816 226.657 314.816 217.339V178.332H313.266V178.335Z" fill="white"/>
<path d="M283.084 177.406C283.084 182.536 278.926 186.694 273.796 186.694C268.667 186.694 264.509 182.536 264.509 177.406C264.509 172.277 268.667 168.119 273.796 168.119C278.926 168.119 283.084 172.277 283.084 177.406Z" fill="white"/>
<path d="M143.317 135.151C143.317 140.28 139.159 144.438 134.03 144.438C128.901 144.438 124.743 140.28 124.743 135.151C124.743 130.022 128.901 125.864 134.03 125.864C139.159 125.864 143.317 130.022 143.317 135.151Z" fill="white"/>
<path d="M112.672 139.264V125.864C112.672 120.579 116.924 116.113 121.96 116.113H155.93L159.097 106.307L159.205 106.002C160.257 102.984 161.644 100.153 163.315 97.5388H131.989L138.53 77.4597L138.558 77.3807C138.996 76.1301 140.156 75.2522 141.381 75.2522H210.183C211.315 75.2522 212.388 77.8662 212.887 78.9671H232.65L230.527 71.2183C227.473 62.5211 219.304 56.6833 210.183 56.6833H141.381C132.26 56.6833 124.091 62.5211 121.036 71.2183L111.504 99.6306C108.046 101.07 104.867 103.23 102.149 106.044C96.9573 111.416 94.0977 118.454 94.0977 125.866V147.23C94.0977 148.159 94.1457 149.076 94.2361 149.982C99.2834 144.842 105.649 141.113 112.672 139.264Z" fill="white"/>
<path d="M252.901 186.694V168.119H230.53L236.534 186.694H252.901Z" fill="white"/>
</svg>
